<svg fill="#000000" xmlns="http://www.w3.org/2000/svg"  viewBox="0 0 80 80" width="80px" height="80px"><path d="M 56.212891 9.0371094 C 54.558891 8.9921094 53.074406 9.5806719 51.941406 10.763672 C 51.033406 11.723672 50.589094 12.767188 50.621094 13.867188 C 50.691094 16.245188 52.892406 18.315891 55.441406 20.712891 C 56.167406 21.394891 56.917672 22.099937 57.638672 22.835938 C 61.591672 26.854938 63.951172 32.282516 63.951172 37.353516 C 63.951172 40.943516 62.437063 44.410344 61.539062 46.152344 C 60.448062 44.786344 59.803906 43.299141 59.128906 41.744141 L 58.990234 41.429688 C 58.982234 41.402687 58.973891 41.373656 58.962891 41.347656 C 57.944891 38.809656 57.214141 37.794375 56.369141 36.734375 C 53.729141 33.387375 48.740281 33.183188 44.238281 36.242188 C 41.905281 37.829188 38.951219 41.180563 35.824219 44.726562 C 32.730219 48.235562 29.543781 51.850078 27.175781 53.455078 C 25.791781 49.258078 24.829578 42.834391 27.017578 34.525391 C 29.496578 25.115391 30.319453 16.619719 29.064453 13.386719 C 28.015453 10.713719 25.992719 9.1591406 23.511719 9.1191406 C 20.883719 9.1011406 17.882953 10.641234 15.001953 13.490234 C 9.9269531 18.508234 4 29.073937 4 42.335938 C 4 42.749937 4.0171563 43.164156 4.0351562 43.535156 C 4.0351562 43.809156 4.0529375 44.081844 4.0859375 44.339844 C 4.0889375 44.525844 4.1020937 44.692484 4.1210938 44.896484 C 4.1300937 45.017484 4.1442031 45.136906 4.1582031 45.253906 C 4.1692031 45.344906 4.1803594 45.434078 4.1933594 45.580078 C 4.2633594 46.117078 4.3491719 46.670266 4.4511719 47.197266 C 4.5221719 47.582266 4.5928281 47.950063 4.6738281 48.289062 C 4.7598281 48.701063 4.86075 49.097719 4.96875 49.511719 C 5.07675 49.914719 5.4316406 51.037109 5.4316406 51.037109 C 5.4386406 51.059109 5.445125 51.080562 5.453125 51.101562 C 5.501125 51.222563 6.4726562 53.596641 6.9726562 54.681641 C 7.2476563 55.230641 7.5380313 55.76325 7.8320312 56.28125 C 7.9020312 56.40325 8.3402344 57.118656 8.4902344 57.347656 C 8.6032344 57.520656 9.0175 58.137906 9.1875 58.378906 C 9.5075 58.827906 9.952125 59.430094 10.203125 59.746094 C 10.343125 59.924094 10.705453 60.381719 10.814453 60.511719 C 11.053453 60.795719 11.300828 61.071797 11.548828 61.341797 C 11.766828 61.628797 12.190625 62.066281 13.015625 62.863281 C 13.355625 63.186281 13.696781 63.509687 14.050781 63.804688 C 14.157781 63.920688 14.261172 64.003641 14.326172 64.056641 L 14.417969 64.136719 C 14.536969 64.244719 14.659062 64.353313 14.789062 64.445312 C 15.146062 64.750312 15.503422 65.036922 15.857422 65.294922 C 16.667422 65.918922 17.533203 66.513969 18.408203 67.042969 C 18.656203 67.202969 18.922547 67.364672 19.185547 67.513672 L 19.337891 67.597656 C 19.488891 67.682656 19.646187 67.769453 19.742188 67.814453 C 20.059187 68.000453 20.376062 68.168922 20.664062 68.294922 C 21.844063 68.893922 23.112969 69.418656 24.417969 69.847656 C 24.715969 69.952656 25.014906 70.040531 25.378906 70.144531 C 25.445906 70.160531 25.512172 70.178266 25.576172 70.197266 L 25.777344 70.253906 C 26.046344 70.325906 26.314297 70.397453 26.529297 70.439453 C 26.878297 70.530453 27.229484 70.603437 27.521484 70.648438 C 27.779484 70.704437 28.018125 70.741109 28.328125 70.787109 C 28.527125 70.820109 28.715703 70.850375 28.845703 70.859375 C 29.080703 70.896375 29.297953 70.913687 29.501953 70.929688 C 29.774953 70.965688 30.029219 70.983906 30.324219 71.003906 C 30.722219 71.020906 31.119578 71.037109 31.517578 71.037109 C 32.554578 71.037109 33.585313 70.916641 34.570312 70.681641 C 34.909312 70.604641 35.249344 70.510156 35.527344 70.410156 C 37.029344 69.950156 38.445469 69.224312 39.855469 68.195312 C 40.603469 67.651312 41.342594 67.027125 42.058594 66.328125 C 42.537594 65.849125 43.007078 65.343172 43.455078 64.826172 C 43.717078 64.524172 43.959078 64.212437 44.205078 63.898438 L 44.34375 63.722656 C 44.38175 63.674656 44.464391 63.553078 44.525391 63.455078 L 44.605469 63.353516 C 46.865469 60.348516 48.376047 57.142437 49.248047 54.773438 C 51.982047 59.766437 55.823594 62.203125 60.933594 62.203125 C 68.677594 62.203125 76 50.312328 76 37.736328 C 76 28.425328 71.847234 21.550828 68.365234 17.423828 C 63.782234 11.971828 59.693891 9.1491094 56.212891 9.0371094 z M 56.146484 11.039062 C 58.954484 11.130063 62.750937 13.855844 66.835938 18.714844 C 70.103938 22.585844 74 29.029328 74 37.736328 C 74 38.703407 73.937872 39.665811 73.847656 40.623047 C 73.519951 40.668673 73.217746 40.857227 73.070312 41.177734 C 72.830313 41.677734 73.050781 42.267812 73.550781 42.507812 C 73.571639 42.516751 73.592424 42.513877 73.613281 42.521484 C 72.145256 52.008567 66.591413 60.20203 60.933594 60.201172 C 55.908594 60.201172 52.423703 57.489063 49.970703 51.664062 C 49.802703 51.265062 49.396797 51.008641 48.966797 51.056641 C 48.535797 51.092641 48.176172 51.401266 48.076172 51.822266 C 47.647172 53.634266 46.037 58.123156 43 62.160156 L 42.923828 62.257812 C 42.891828 62.296812 42.855078 62.353484 42.830078 62.396484 C 42.812078 62.426484 42.780484 62.474281 42.771484 62.488281 L 42.630859 62.667969 C 42.406859 62.953969 42.187266 63.238672 41.947266 63.513672 C 41.893079 63.576285 41.83411 63.631227 41.779297 63.693359 C 41.541647 63.380634 41.131496 63.219483 40.730469 63.326172 C 40.190469 63.466172 39.869766 64.016875 40.009766 64.546875 C 40.074872 64.791025 40.226704 64.983351 40.419922 65.115234 C 39.852556 65.650776 39.271026 66.1487 38.679688 66.578125 C 37.451687 67.475125 36.228391 68.102766 34.900391 68.509766 C 34.654391 68.597766 34.394141 68.668469 34.119141 68.730469 C 32.920141 69.019469 31.606547 69.056859 30.435547 69.005859 C 30.207547 68.991859 29.994312 68.976453 29.695312 68.939453 C 29.512312 68.924453 29.340984 68.910047 29.083984 68.873047 C 28.937984 68.860047 28.803156 68.8365 28.660156 68.8125 C 28.651156 68.8115 28.566594 68.797875 28.558594 68.796875 C 28.349594 68.767875 28.156625 68.738641 27.890625 68.681641 C 27.606625 68.637641 27.322375 68.578234 26.984375 68.490234 C 26.753375 68.443234 26.521391 68.381406 26.275391 68.316406 L 26.130859 68.275391 C 26.030859 68.247391 25.927 68.218031 25.875 68.207031 C 25.611 68.130031 25.3455 68.053125 25.0625 67.953125 C 23.8335 67.550125 22.659484 67.063281 21.521484 66.488281 C 21.257484 66.370281 21.007313 66.238641 20.695312 66.056641 C 20.565312 65.992641 20.4365 65.920563 20.3125 65.851562 L 20.160156 65.767578 C 19.943156 65.643578 19.71075 65.503656 19.46875 65.347656 C 18.63275 64.842656 17.827687 64.290312 17.054688 63.695312 C 16.708688 63.442312 16.378828 63.175578 16.048828 62.892578 C 16.017828 62.866578 15.985172 62.842312 15.951172 62.820312 C 15.882172 62.774313 15.821766 62.71325 15.759766 62.65625 L 15.603516 62.519531 C 15.574516 62.495531 15.543297 62.472938 15.529297 62.460938 C 15.485297 62.406937 15.437812 62.3575 15.382812 62.3125 C 15.042813 62.0345 14.716953 61.723391 14.376953 61.400391 C 13.968953 61.006391 13.242516 60.243891 13.103516 60.087891 C 13.087516 60.066891 13.070687 60.045391 13.054688 60.025391 C 12.815688 59.766391 12.576703 59.500563 12.345703 59.226562 C 12.241703 59.103563 11.906703 58.676406 11.720703 58.441406 C 11.532703 58.205406 11.117313 57.643609 10.820312 57.224609 C 10.661313 56.999609 10.273969 56.415906 10.167969 56.253906 C 10.032969 56.046906 9.6342656 55.401922 9.5722656 55.294922 C 9.2972656 54.808922 9.0223437 54.306359 8.7773438 53.818359 C 8.3333438 52.854359 7.4511719 50.707437 7.3261719 50.398438 C 7.2661719 50.209438 6.9904375 49.333281 6.8984375 48.988281 C 6.8044375 48.624281 6.7080469 48.261516 6.6230469 47.853516 C 6.5430469 47.521516 6.4810156 47.189078 6.4160156 46.830078 C 6.3200156 46.334078 6.2406406 45.820953 6.1816406 45.376953 C 6.1716406 45.253953 6.1565781 45.135578 6.1425781 45.017578 C 6.1315781 44.927578 6.1204219 44.836687 6.1074219 44.679688 C 6.0954219 44.544688 6.0820312 44.418531 6.0820312 44.269531 C 6.0820312 44.222531 6.0782656 44.175906 6.0722656 44.128906 C 6.0452656 43.939906 6.03225 43.738141 6.03125 43.494141 C 6.01525 43.109141 6 42.722938 6 42.335938 C 6 29.689938 11.605297 19.659063 16.404297 14.914062 C 18.881297 12.464062 21.375688 11.119141 23.429688 11.119141 L 23.482422 11.119141 C 25.131422 11.145141 26.451219 12.211234 27.199219 14.115234 C 28.124219 16.497234 27.693078 24.098625 25.080078 34.015625 C 22.553078 43.608625 24.021266 50.871391 25.697266 55.275391 C 25.70429 55.293768 25.720462 55.306373 25.728516 55.324219 C 25.738801 55.347799 25.737725 55.373398 25.75 55.396484 C 25.795722 55.480307 25.852932 55.554123 25.917969 55.619141 C 25.999143 55.700291 26.095186 55.759781 26.197266 55.808594 C 26.218612 55.819086 26.233676 55.838679 26.255859 55.847656 C 26.27783 55.856479 26.30187 55.85215 26.324219 55.859375 C 26.421546 55.890896 26.52187 55.912735 26.625 55.914062 C 26.630284 55.914131 26.635336 55.91603 26.640625 55.916016 C 26.661944 55.91585 26.681863 55.911687 26.703125 55.910156 C 26.823102 55.904 26.940416 55.87755 27.054688 55.826172 C 27.072706 55.81807 27.09162 55.81611 27.109375 55.806641 C 27.125677 55.797504 27.134786 55.781369 27.150391 55.771484 C 29.934634 54.41992 33.522588 50.357832 37.322266 46.048828 C 40.229266 42.751828 43.236328 39.341484 45.361328 37.896484 C 49.012328 35.416484 52.804781 35.447563 54.800781 37.976562 C 55.037996 38.27441 55.260944 38.577679 55.482422 38.900391 C 55.223637 39.047749 55.026772 39.293499 54.980469 39.605469 C 54.890469 40.156469 55.270313 40.666094 55.820312 40.746094 C 55.870312 40.756094 55.920703 40.757812 55.970703 40.757812 C 56.148257 40.757812 56.310803 40.696986 56.458984 40.611328 C 56.649506 41.010588 56.850019 41.46352 57.068359 42.003906 C 57.081359 42.049906 57.096234 42.093719 57.115234 42.136719 L 57.292969 42.541016 C 58.174969 44.571016 59.085156 46.669359 61.035156 48.568359 C 61.045257 48.578272 61.059862 48.580419 61.070312 48.589844 C 61.085838 48.603832 61.092774 48.623592 61.109375 48.636719 C 61.299375 48.786719 61.510469 48.856422 61.730469 48.857422 C 61.7562 48.857422 61.779154 48.843703 61.804688 48.841797 C 61.81939 48.840734 61.832916 48.847411 61.847656 48.845703 C 61.942201 48.834952 62.031349 48.807514 62.117188 48.771484 C 62.160901 48.753286 62.203065 48.735439 62.244141 48.710938 C 62.253528 48.705332 62.262286 48.699271 62.271484 48.693359 C 62.362179 48.635154 62.448135 48.565807 62.519531 48.476562 C 62.5342 48.458011 62.537635 48.43527 62.550781 48.416016 C 62.557727 48.405954 62.56957 48.400976 62.576172 48.390625 C 62.715172 48.174625 65.949219 43.029516 65.949219 37.353516 C 65.949219 31.769516 63.375453 25.818547 59.064453 21.435547 C 58.325453 20.681547 57.555547 19.955859 56.810547 19.255859 C 54.678547 17.250859 52.664141 15.356594 52.619141 13.808594 C 52.603141 13.251594 52.855672 12.705578 53.388672 12.142578 C 54.124672 11.375578 55.034484 11.020062 56.146484 11.039062 z M 52.568359 40.757812 C 52.317109 40.804063 52.084688 40.945781 51.929688 41.175781 C 51.609688 41.626781 51.729687 42.255406 52.179688 42.566406 C 52.359688 42.685406 52.55 42.747094 52.75 42.746094 C 53.07 42.746094 53.380313 42.586641 53.570312 42.306641 C 53.890312 41.855641 53.770313 41.226016 53.320312 40.916016 C 53.090312 40.761016 52.819609 40.711562 52.568359 40.757812 z M 71.832031 44.095703 C 71.579531 44.140703 71.344453 44.280859 71.189453 44.505859 C 70.879453 44.965859 70.989453 45.586484 71.439453 45.896484 C 71.619453 46.016484 71.819766 46.076172 72.009766 46.076172 C 72.329766 46.076172 72.639844 45.926484 72.839844 45.646484 C 73.149844 45.196484 73.040078 44.566859 72.580078 44.255859 C 72.355078 44.100859 72.084531 44.050703 71.832031 44.095703 z M 50.900391 44.291016 C 50.512266 44.293594 50.147734 44.523 49.990234 44.90625 C 49.780234 45.42625 50.029063 46.006797 50.539062 46.216797 C 50.659063 46.265797 50.789922 46.287109 50.919922 46.287109 C 51.309922 46.287109 51.689844 46.057969 51.839844 45.667969 C 52.049844 45.157969 51.809063 44.577188 51.289062 44.367188 C 51.161563 44.314687 51.029766 44.290156 50.900391 44.291016 z M 69.453125 46.986328 C 69.201875 46.941203 68.935937 46.991484 68.710938 47.146484 L 68.710938 47.15625 C 68.260938 47.46625 68.150937 48.096875 68.460938 48.546875 C 68.660937 48.826875 68.969297 48.966797 69.279297 48.966797 C 69.479297 48.966797 69.679375 48.917109 69.859375 48.787109 C 70.309375 48.476109 70.419609 47.846484 70.099609 47.396484 C 69.939609 47.171984 69.704375 47.031453 69.453125 46.986328 z M 65.560547 48.007812 C 65.010547 47.977813 64.539766 48.407031 64.509766 48.957031 C 64.489766 49.507031 64.910938 49.977812 65.460938 50.007812 L 65.519531 50.007812 C 66.039531 50.007813 66.479766 49.586641 66.509766 49.056641 C 66.539766 48.506641 66.120547 48.037813 65.560547 48.007812 z M 49.521484 48.09375 C 49.135234 48.15 48.804219 48.430937 48.699219 48.835938 C 48.549219 49.366938 48.870156 49.916641 49.410156 50.056641 C 49.490156 50.077641 49.580156 50.087938 49.660156 50.085938 C 50.110156 50.085938 50.510859 49.785703 50.630859 49.345703 C 50.770859 48.805703 50.449922 48.264234 49.919922 48.115234 C 49.784922 48.080234 49.650234 48.075 49.521484 48.09375 z M 11.179688 54.091797 C 10.7925 54.065266 10.408203 54.269219 10.220703 54.636719 C 9.9707031 55.126719 10.170156 55.726562 10.660156 55.976562 C 10.810156 56.056563 10.959375 56.087891 11.109375 56.087891 C 11.479375 56.087891 11.83 55.887109 12 55.537109 C 12.25 55.047109 12.060547 54.447266 11.560547 54.197266 C 11.438047 54.134766 11.30875 54.100641 11.179688 54.091797 z M 23.037109 55.201172 C 22.909766 55.176875 22.775625 55.177031 22.640625 55.207031 C 22.100625 55.317031 21.749141 55.856484 21.869141 56.396484 C 21.969141 56.856484 22.379844 57.176734 22.839844 57.177734 C 22.909844 57.177734 22.980547 57.178203 23.060547 57.158203 C 23.600547 57.047203 23.940313 56.516562 23.820312 55.976562 C 23.737812 55.570813 23.419141 55.274062 23.037109 55.201172 z M 15.080078 55.355469 C 14.540078 55.256469 14.019922 55.61625 13.919922 56.15625 C 13.809922 56.69625 14.170938 57.225172 14.710938 57.326172 C 14.770937 57.336172 14.840391 57.346703 14.900391 57.345703 C 15.370391 57.345703 15.790859 57.006344 15.880859 56.527344 C 15.980859 55.987344 15.630078 55.465469 15.080078 55.355469 z M 18.849609 55.646484 L 18.849609 55.65625 C 18.299609 55.66625 17.870859 56.127734 17.880859 56.677734 C 17.890859 57.217734 18.340859 57.646484 18.880859 57.646484 L 18.900391 57.646484 C 19.460391 57.636484 19.890859 57.176953 19.880859 56.626953 C 19.860859 56.067953 19.399609 55.636484 18.849609 55.646484 z M 27.777344 56.746094 C 27.648594 56.759594 27.520391 56.799437 27.400391 56.867188 C 26.910391 57.127187 26.730234 57.737797 26.990234 58.216797 C 27.180234 58.555797 27.520859 58.737328 27.880859 58.736328 C 28.040859 58.736328 28.199609 58.706953 28.349609 58.626953 C 28.829609 58.356953 29.02 57.745625 28.75 57.265625 C 28.555 56.898875 28.163594 56.705594 27.777344 56.746094 z M 30.207031 60.033203 C 29.952031 60.016953 29.690469 60.097344 29.480469 60.277344 C 29.070469 60.646344 29.030625 61.276547 29.390625 61.685547 C 29.590625 61.916547 29.860625 62.027344 30.140625 62.027344 C 30.380625 62.027344 30.610781 61.947344 30.800781 61.777344 C 31.220781 61.417344 31.260625 60.777187 30.890625 60.367188 C 30.710625 60.162188 30.462031 60.049453 30.207031 60.033203 z M 33.302734 62.580078 C 32.916484 62.54075 32.525078 62.728203 32.330078 63.095703 C 32.060078 63.576703 32.240703 64.186266 32.720703 64.447266 C 32.880703 64.537266 33.039219 64.576172 33.199219 64.576172 C 33.559219 64.576172 33.900078 64.386641 34.080078 64.056641 C 34.350078 63.567641 34.169688 62.967266 33.679688 62.697266 C 33.559688 62.632016 33.431484 62.593187 33.302734 62.580078 z M 37.089844 63.6875 C 36.539844 63.6475 36.059531 64.057422 36.019531 64.607422 C 35.979531 65.157422 36.389453 65.637734 36.939453 65.677734 C 36.969453 65.677734 36.989531 65.6865 37.019531 65.6875 C 37.529531 65.6875 37.969766 65.287813 38.009766 64.757812 C 38.049766 64.208813 37.639844 63.7275 37.089844 63.6875 z"/></svg>